<?xml version="1.0" encoding="iso-8859-1"?>
<!-- Generator: Adobe Illustrator 21.0.2, SVG Export Plug-In . SVG Version: 6.00 Build 0)  -->
<svg xmlns="http://www.w3.org/2000/svg" xmlns:xlink="http://www.w3.org/1999/xlink" version="1.1" id="Layer_1" x="0px" y="0px" viewBox="0 0 40 40" style="enable-background:new 0 0 40 40;" xml:space="preserve">
<g>
	<g>
		<polygon style="fill:#DFF0FE;" points="14.006,33.475 1.5,37.323 1.5,6.369 13.994,2.525 25.994,6.525 38.5,2.677 38.5,33.631     26.006,37.475   "/>
	</g>
	<g>
		<path style="fill:#4788C7;" d="M13.988,3.05l11.696,3.899l0.304,0.101l0.306-0.094L38,3.354v29.907L26.012,36.95l-11.696-3.899    l-0.304-0.101l-0.306,0.094L2,36.646V6.739L13.988,3.05 M39,2L26,6L14,2L1,6v32l13-4l12,4l13-4V2L39,2z"/>
	</g>
</g>
<path style="fill:#FFFFFF;" d="M26,37l-12-4V3l12,4V37z"/>
<g>
	<path style="fill:#98CCFD;" d="M26.001,33.23C24.438,31.359,18.5,23.862,18.5,18c0-4.136,3.364-7.5,7.5-7.5s7.5,3.364,7.5,7.5   C33.5,23.912,27.566,31.368,26.001,33.23z"/>
	<g>
		<path style="fill:#4788C7;" d="M26,11c3.86,0,7,3.14,7,7c0,5.34-5.055,12.059-6.998,14.445C24.06,30.05,19,23.299,19,18    C19,14.14,22.14,11,26,11 M26,10c-4.418,0-8,3.582-8,8c0,6.989,8,16,8,16s8-8.956,8-16C34,13.582,30.418,10,26,10L26,10z"/>
	</g>
</g>
<g>
	<circle style="fill:#FFFFFF;" cx="26" cy="18" r="3.5"/>
	<g>
		<path style="fill:#4788C7;" d="M26,15c1.657,0,3,1.343,3,3s-1.343,3-3,3s-3-1.343-3-3S24.343,15,26,15 M26,14    c-2.206,0-4,1.794-4,4s1.794,4,4,4s4-1.794,4-4S28.206,14,26,14L26,14z"/>
	</g>
</g>
</svg>
